HIERARCHY
ROOT Hips
{
	OFFSET 0.000000 71.427986 0.000000
	CHANNELS 6 Xposition Yposition Zposition Xrotation Yrotation Zrotation
	JOINT Pelvis
	{
		OFFSET 0.000000 0.000000 0.000000
		CHANNELS 3 Xrotation Yrotation Zrotation
		JOINT LeftUpLeg
		{
			OFFSET 6.797100 -2.508499 -1.318700
			CHANNELS 3 Xrotation Yrotation Zrotation
			JOINT LeftLeg
			{
				OFFSET 0.069008 -29.241863 0.690200
				CHANNELS 3 Xrotation Yrotation Zrotation
				JOINT LeftFoot
				{
					OFFSET -0.069008 -29.568123 -0.266800
					CHANNELS 3 Xrotation Yrotation Zrotation
					JOINT LeftToeBase
					{
						OFFSET 3.145500 -8.631000 16.059900
						CHANNELS 3 Xrotation Yrotation Zrotation
						End Site
						{
							OFFSET 0.000000 18.501587 0.000000
						}
					}
				}
			}
			JOINT Left_ShortSleeve
			{
				OFFSET 0.265923 -10.480953 1.153800
				CHANNELS 3 Xrotation Yrotation Zrotation
				End Site
				{
					OFFSET 1.725763 19.823879 0.000000
				}
			}
		}
		JOINT RightUpLeg
		{
			OFFSET -6.797100 -2.508499 -1.318700
			CHANNELS 3 Xrotation Yrotation Zrotation
			JOINT RightLeg
			{
				OFFSET -0.082453 -29.241932 0.688000
				CHANNELS 3 Xrotation Yrotation Zrotation
				JOINT RightFoot
				{
					OFFSET 0.082453 -29.568058 -0.264600
					CHANNELS 3 Xrotation Yrotation Zrotation
					JOINT RightToeBase
					{
						OFFSET -3.115300 -8.682800 16.113400
						CHANNELS 3 Xrotation Yrotation Zrotation
						End Site
						{
							OFFSET 0.000000 18.567114 0.000000
						}
					}
				}
			}
			JOINT Right_ShortSleeve
			{
				OFFSET -0.265923 -10.480953 1.153800
				CHANNELS 3 Xrotation Yrotation Zrotation
				End Site
				{
					OFFSET -1.725766 19.823910 0.000000
				}
			}
		}
	}
	JOINT Spine
	{
		OFFSET 0.000000 13.368103 0.470500
		CHANNELS 3 Xrotation Yrotation Zrotation
		JOINT Spine1
		{
			OFFSET 0.147000 13.837402 0.538800
			CHANNELS 3 Xrotation Yrotation Zrotation
			JOINT Spine2
			{
				OFFSET 0.168000 16.242897 -1.435500
				CHANNELS 3 Xrotation Yrotation Zrotation
				JOINT Neck
				{
					OFFSET 0.217200 18.631500 -1.679100
					CHANNELS 3 Xrotation Yrotation Zrotation
					JOINT Head
					{
						OFFSET 0.000000 6.599396 1.385900
						CHANNELS 3 Xrotation Yrotation Zrotation
						JOINT Hat
						{
							OFFSET -0.532200 27.220596 -10.096100
							CHANNELS 3 Xrotation Yrotation Zrotation
							End Site
							{
								OFFSET 0.000000 22.029861 0.000000
							}
						}
						JOINT HairD
						{
							OFFSET -10.777400 17.437393 -1.325900
							CHANNELS 3 Xrotation Yrotation Zrotation
							JOINT HairD1
							{
								OFFSET -3.290299 -11.051193 1.062200
								CHANNELS 3 Xrotation Yrotation Zrotation
								End Site
								{
									OFFSET 0.000000 11.579437 0.000000
								}
							}
						}
						JOINT HairB
						{
							OFFSET -10.777400 17.437393 1.467900
							CHANNELS 3 Xrotation Yrotation Zrotation
							JOINT HairB1
							{
								OFFSET -1.561200 -12.956299 3.590200
								CHANNELS 3 Xrotation Yrotation Zrotation
								End Site
								{
									OFFSET 0.000000 13.534866 0.000000
								}
							}
						}
						JOINT HairA
						{
							OFFSET 9.713100 17.437393 1.467900
							CHANNELS 3 Xrotation Yrotation Zrotation
							JOINT HairA1
							{
								OFFSET 1.561200 -12.956299 3.590200
								CHANNELS 3 Xrotation Yrotation Zrotation
								End Site
								{
									OFFSET 0.000000 13.534866 0.000000
								}
							}
						}
						JOINT HairC
						{
							OFFSET 9.713100 17.437393 -1.325900
							CHANNELS 3 Xrotation Yrotation Zrotation
							JOINT HairC1
							{
								OFFSET 3.290300 -11.051193 1.062200
								CHANNELS 3 Xrotation Yrotation Zrotation
								End Site
								{
									OFFSET 0.000000 11.579437 0.000000
								}
							}
						}
					}
				}
				JOINT LeftShoulder
				{
					OFFSET 5.101800 15.108002 -2.763700
					CHANNELS 3 Xrotation Yrotation Zrotation
					JOINT LeftArm
					{
						OFFSET 9.825497 2.506317 -1.597400
						CHANNELS 3 Xrotation Yrotation Zrotation
						JOINT LeftForeArm
						{
							OFFSET 21.966244 0.000000 0.000000
							CHANNELS 3 Xrotation Yrotation Zrotation
							JOINT LeftHand
							{
								OFFSET 33.879036 0.000000 0.000000
								CHANNELS 3 Xrotation Yrotation Zrotation
								JOINT LeftHandThumb1
								{
									OFFSET 6.715286 -2.359680 3.363841
									CHANNELS 3 Xrotation Yrotation Zrotation
									JOINT LeftHandThumb2
									{
										OFFSET 2.507072 -1.447464 1.447461
										CHANNELS 3 Xrotation Yrotation Zrotation
										JOINT LeftHandThumb3
										{
											OFFSET 2.898338 -1.673355 1.673357
											CHANNELS 3 Xrotation Yrotation Zrotation
											End Site
											{
												OFFSET -0.295959 3.727692 -0.131651
											}
										}
									}
								}
								JOINT LeftHandIndex1
								{
									OFFSET 14.190811 -0.254547 3.840278
									CHANNELS 3 Xrotation Yrotation Zrotation
									JOINT LeftHandIndex2
									{
										OFFSET 3.551727 0.000000 -0.000000
										CHANNELS 3 Xrotation Yrotation Zrotation
										JOINT LeftHandIndex3
										{
											OFFSET 2.894196 0.000000 0.000000
											CHANNELS 3 Xrotation Yrotation Zrotation
											End Site
											{
												OFFSET -1.000603 2.690872 0.366626
											}
										}
									}
								}
								JOINT LeftHandMiddle1
								{
									OFFSET 13.776489 0.000000 0.000000
									CHANNELS 3 Xrotation Yrotation Zrotation
									JOINT LeftHandMiddle2
									{
										OFFSET 3.438232 0.000000 0.000000
										CHANNELS 3 Xrotation Yrotation Zrotation
										JOINT LeftHandMiddle3
										{
											OFFSET 3.691551 0.000000 0.000000
											CHANNELS 3 Xrotation Yrotation Zrotation
											End Site
											{
												OFFSET -1.082298 3.499527 0.457670
											}
										}
									}
								}
								JOINT LeftHandRing1
								{
									OFFSET 13.966164 -0.268127 -3.067488
									CHANNELS 3 Xrotation Yrotation Zrotation
									JOINT LeftHandRing2
									{
										OFFSET 3.162567 0.000000 0.000000
										CHANNELS 3 Xrotation Yrotation Zrotation
										JOINT LeftHandRing3
										{
											OFFSET 3.324348 0.000000 0.000000
											CHANNELS 3 Xrotation Yrotation Zrotation
											End Site
											{
												OFFSET -0.861900 3.184998 0.405154
											}
										}
									}
								}
								JOINT LeftHandPinky1
								{
									OFFSET 13.131393 -0.168503 -5.746925
									CHANNELS 3 Xrotation Yrotation Zrotation
									JOINT LeftHandPinky2
									{
										OFFSET 2.849182 0.000000 0.000000
										CHANNELS 3 Xrotation Yrotation Zrotation
										JOINT LeftHandPinky3
										{
											OFFSET 2.805038 0.000000 0.000000
											CHANNELS 3 Xrotation Yrotation Zrotation
											End Site
											{
												OFFSET -0.882500 2.642609 0.325652
											}
										}
									}
								}
							}
							JOINT Left_Sleeve
							{
								OFFSET 6.592125 -0.646545 0.805568
								CHANNELS 3 Xrotation Yrotation Zrotation
								End Site
								{
									OFFSET -0.000179 20.275787 -0.000000
								}
							}
						}
					}
				}
				JOINT RightShoulder
				{
					OFFSET -5.731700 15.108002 -2.763700
					CHANNELS 3 Xrotation Yrotation Zrotation
					JOINT RightArm
					{
						OFFSET -9.825497 2.506317 -1.597400
						CHANNELS 3 Xrotation Yrotation Zrotation
						JOINT RightForeArm
						{
							OFFSET -21.966242 0.000000 0.000000
							CHANNELS 3 Xrotation Yrotation Zrotation
							JOINT RightHand
							{
								OFFSET -33.879032 0.000000 0.000000
								CHANNELS 3 Xrotation Yrotation Zrotation
								JOINT RightHandThumb1
								{
									OFFSET -6.715286 -2.359680 3.363841
									CHANNELS 3 Xrotation Yrotation Zrotation
									JOINT RightHandThumb2
									{
										OFFSET -2.507072 -1.447464 1.447461
										CHANNELS 3 Xrotation Yrotation Zrotation
										JOINT RightHandThumb3
										{
											OFFSET -2.898338 -1.673355 1.673357
											CHANNELS 3 Xrotation Yrotation Zrotation
											End Site
											{
												OFFSET 0.295959 3.727692 -0.131651
											}
										}
									}
								}
								JOINT RightHandIndex1
								{
									OFFSET -14.190811 -0.254547 3.840278
									CHANNELS 3 Xrotation Yrotation Zrotation
									JOINT RightHandIndex2
									{
										OFFSET -3.551727 0.000000 -0.000000
										CHANNELS 3 Xrotation Yrotation Zrotation
										JOINT RightHandIndex3
										{
											OFFSET -2.894196 0.000000 0.000000
											CHANNELS 3 Xrotation Yrotation Zrotation
											End Site
											{
												OFFSET 1.000603 2.690872 0.366626
											}
										}
									}
								}
								JOINT RightHandMiddle1
								{
									OFFSET -13.776489 0.000000 0.000000
									CHANNELS 3 Xrotation Yrotation Zrotation
									JOINT RightHandMiddle2
									{
										OFFSET -3.438232 0.000000 0.000000
										CHANNELS 3 Xrotation Yrotation Zrotation
										JOINT RightHandMiddle3
										{
											OFFSET -3.691551 0.000000 0.000000
											CHANNELS 3 Xrotation Yrotation Zrotation
											End Site
											{
												OFFSET 1.082298 3.499527 0.457670
											}
										}
									}
								}
								JOINT RightHandRing1
								{
									OFFSET -13.966164 -0.268127 -3.067488
									CHANNELS 3 Xrotation Yrotation Zrotation
									JOINT RightHandRing2
									{
										OFFSET -3.162567 0.000000 0.000000
										CHANNELS 3 Xrotation Yrotation Zrotation
										JOINT RightHandRing3
										{
											OFFSET -3.324348 0.000000 0.000000
											CHANNELS 3 Xrotation Yrotation Zrotation
											End Site
											{
												OFFSET 0.861900 3.184998 0.405154
											}
										}
									}
								}
								JOINT RightHandPinky1
								{
									OFFSET -13.131393 -0.168503 -5.746925
									CHANNELS 3 Xrotation Yrotation Zrotation
									JOINT RightHandPinky2
									{
										OFFSET -2.849182 0.000000 0.000000
										CHANNELS 3 Xrotation Yrotation Zrotation
										JOINT RightHandPinky3
										{
											OFFSET -2.805038 0.000000 0.000000
											CHANNELS 3 Xrotation Yrotation Zrotation
											End Site
											{
												OFFSET 0.882500 2.642609 0.325652
											}
										}
									}
								}
							}
							JOINT Right_Sleeve
							{
								OFFSET -6.592125 -0.646545 0.805568
								CHANNELS 3 Xrotation Yrotation Zrotation
								End Site
								{
									OFFSET 0.000179 20.275787 -0.000000
								}
							}
						}
					}
				}
				JOINT Bind_Right_JacketString
				{
					OFFSET -3.534800 11.969597 7.200700
					CHANNELS 3 Xrotation Yrotation Zrotation
					JOINT Bind_Right_JacketString1
					{
						OFFSET -0.319900 -6.102600 2.794100
						CHANNELS 3 Xrotation Yrotation Zrotation
						End Site
						{
							OFFSET 0.000000 6.719452 0.000000
						}
					}
				}
				JOINT Bind_Left_JacketString
				{
					OFFSET 2.904800 11.969597 7.200700
					CHANNELS 3 Xrotation Yrotation Zrotation
					JOINT Bind_Left_JacketString1
					{
						OFFSET 0.364800 -5.904503 3.186800
						CHANNELS 3 Xrotation Yrotation Zrotation
						End Site
						{
							OFFSET 0.000000 6.719513 0.000000
						}
					}
				}
				JOINT HairE
				{
					OFFSET 5.915200 17.612701 -11.592200
					CHANNELS 3 Xrotation Yrotation Zrotation
					JOINT HairE1
					{
						OFFSET 0.289200 -7.171898 -1.284500
						CHANNELS 3 Xrotation Yrotation Zrotation
						End Site
						{
							OFFSET 0.000000 7.291756 0.000000
						}
					}
				}
				JOINT HairF
				{
					OFFSET -0.864800 17.612701 -11.592200
					CHANNELS 3 Xrotation Yrotation Zrotation
					JOINT HairF1
					{
						OFFSET 0.000000 -14.087097 -2.127501
						CHANNELS 3 Xrotation Yrotation Zrotation
						End Site
						{
							OFFSET 0.000000 14.246841 0.000000
						}
					}
				}
				JOINT HairG
				{
					OFFSET -8.087700 17.612701 -11.592200
					CHANNELS 3 Xrotation Yrotation Zrotation
					JOINT HairG1
					{
						OFFSET -0.293600 -6.081398 -0.910100
						CHANNELS 3 Xrotation Yrotation Zrotation
						End Site
						{
							OFFSET 0.000000 6.156120 0.000000
						}
					}
				}
			}
		}
	}
	JOINT Pouch
	{
		OFFSET 0.000000 4.394501 10.847300
		CHANNELS 3 Xrotation Yrotation Zrotation
		End Site
		{
			OFFSET 0.000000 21.880577 0.000000
		}
	}
	JOINT Bag
	{
		OFFSET -13.229000 4.813004 -0.593300
		CHANNELS 3 Xrotation Yrotation Zrotation
		End Site
		{
			OFFSET 0.000000 21.880577 0.000000
		}
	}
	JOINT OccupyGuyFacialAnim_Joint
	{
		OFFSET 1.000000 -70.206398 -1.655000
		CHANNELS 3 Xrotation Yrotation Zrotation
		End Site
		{
			OFFSET 0.000000 21.880577 0.000000
		}
	}
}
MOTION
Frames: 4
Frame Time: 0.033333
-1.043844 63.776596 1.395323 1.879420 -60.673431 6.639538 -0.000000 0.000000 -0.000000 -29.720544 10.968842 22.194870 43.956611 -4.984444 -10.541339 -14.277671 -2.524718 -7.869811 0.000000 0.000002 0.000000 0.000001 -0.000003 -0.000003 -30.497816 -9.296281 -26.333501 48.154077 4.442607 -7.461787 -22.088106 3.575238 19.528493 -0.000000 -0.000002 0.000000 0.000002 -0.000001 -0.000001 11.394461 0.157025 -2.130224 8.521790 0.329330 -4.836027 8.560023 0.359008 -4.827356 -21.446118 25.628630 12.706306 0.609836 25.544281 -2.721344 0.000000 0.000000 -0.000001 0.000000 0.000000 -0.000001 0.000000 0.000000 -0.000000 0.000000 0.000000 -0.000001 0.000000 -0.000000 -0.000001 0.000000 0.000000 -0.000001 0.000000 -0.000000 -0.000001 0.000000 0.000000 -0.000001 0.000000 0.000000 -0.000001 -6.311548 -10.772825 -3.921243 -22.060012 13.830089 -39.316106 0.007189 -46.880653 -0.037780 22.531232 -6.838265 13.623836 -1.473185 -10.208161 7.631593 1.805412 18.334926 -2.693289 -0.000001 -0.000000 -0.000000 13.291723 -0.998963 13.103920 -0.159589 0.316212 -28.683034 0.000002 0.000000 -0.000000 8.507691 -0.333222 1.507635 0.212566 0.635896 -27.479183 -0.000000 0.000002 0.000001 6.107824 3.132674 -13.787390 0.028520 0.320926 -27.702773 -0.000002 0.000002 -0.000005 -5.611615 7.700371 -11.453992 0.214971 0.271864 -44.165772 0.000000 0.000000 0.000001 0.000004 0.000001 -0.000003 -5.579805 10.750904 4.720158 -41.153420 -27.100586 30.087745 24.437824 112.349140 -22.745570 -8.247928 9.253230 -11.617226 0.187662 10.558497 -10.692313 0.748813 -15.685967 3.723188 -0.000002 0.000006 -0.000001 19.421942 11.175429 -15.376173 -0.120525 -0.312209 16.000712 -0.000002 0.000003 0.000001 4.339399 2.455383 -6.847029 0.350226 -0.443692 24.855405 0.000001 0.000002 0.000001 -6.985096 -10.668412 3.683959 0.102728 -0.049930 24.121115 -0.000003 0.000001 -0.000003 -19.396721 -20.205607 3.955764 0.201889 -0.060050 34.809673 0.000003 0.000002 -0.000003 0.000003 -0.000000 0.000000 -0.000003 -0.000002 0.000000 -0.000002 -0.000001 0.000002 -0.000003 -0.000002 -0.000000 -0.000003 -0.000002 -0.000000 -0.000003 -0.000002 0.000000 -0.000002 -0.000001 0.000003 -0.000003 -0.000002 -0.000000 -0.000003 -0.000002 -0.000000 -0.000003 -0.000002 0.000000 -0.000002 -0.000001 0.000003 -0.000000 0.000000 -0.000000 -0.000000 0.000000 -0.000000 -0.000000 0.000000 -0.000000 
-0.998590 63.769112 1.289105 2.218509 -60.315071 6.707560 -0.000000 -0.000001 -0.000000 -30.244617 10.969378 22.457754 43.888480 -5.414473 -10.436357 -14.054136 -2.552658 -7.781728 0.000000 -0.000002 0.000000 -0.000000 -0.000001 -0.000001 -30.559202 -9.374292 -26.019754 48.261167 4.945171 -7.438449 -22.044987 2.681538 19.228723 -0.000000 -0.000000 -0.000000 0.000003 -0.000000 -0.000001 11.358407 0.151821 -2.334373 8.502260 0.336784 -5.047278 8.532792 0.357085 -5.039505 -21.332784 25.551273 12.468785 0.683378 25.498281 -3.055143 0.000001 0.000001 -0.000001 0.000001 0.000001 -0.000001 0.000001 0.000001 -0.000001 0.000001 0.000001 -0.000001 0.000000 0.000001 -0.000001 0.000001 0.000001 -0.000001 0.000000 0.000001 -0.000001 0.000001 0.000001 -0.000001 0.000001 0.000001 -0.000001 -6.284569 -10.888636 -3.950371 -22.253175 13.020295 -38.626045 -0.043380 -46.495020 -0.074449 22.518032 -6.707829 13.828404 -1.372361 -9.666443 7.839964 1.925978 18.682272 -2.553094 -0.000000 -0.000000 -0.000001 13.293564 -1.000829 12.521034 -0.158887 0.316620 -29.265977 -0.000000 0.000001 0.000000 8.501827 -0.327841 0.924714 0.215101 0.637970 -28.062082 0.000001 -0.000001 0.000000 6.101524 3.139255 -14.369895 0.028703 0.324887 -28.285658 -0.000002 0.000004 0.000003 -5.614011 7.703679 -12.037137 0.217190 0.273854 -44.748657 -0.000000 -0.000001 -0.000001 0.000001 -0.000000 -0.000002 -5.565528 10.754390 4.350975 -41.019616 -27.010070 30.411561 24.150733 112.615722 -22.434376 -8.238066 8.862056 -11.345275 0.202793 10.423695 -10.740818 0.921127 -16.146943 3.533145 0.000000 0.000000 -0.000001 19.426306 11.175851 -14.831843 -0.120049 -0.312709 16.545075 -0.000000 0.000002 -0.000005 4.330479 2.450562 -6.302464 0.349577 -0.445553 25.399720 0.000002 -0.000003 0.000001 -6.989668 -10.672536 4.228870 0.102484 -0.053703 24.665418 -0.000000 0.000004 -0.000000 -19.401677 -20.210238 4.501250 0.203453 -0.062329 35.353985 0.000003 0.000000 -0.000001 -0.000000 0.000001 0.000001 0.000002 -0.000002 0.000001 0.000003 0.000001 -0.000001 0.000002 -0.000002 -0.000000 0.000002 -0.000002 -0.000000 0.000002 -0.000002 0.000001 0.000003 0.000001 -0.000001 0.000002 -0.000002 -0.000000 0.000002 -0.000002 -0.000000 0.000002 -0.000002 0.000001 0.000003 0.000001 -0.000001 -0.000000 -0.000001 -0.000000 -0.000000 -0.000001 -0.000000 -0.000000 -0.000001 -0.000000 
-0.957852 63.754868 1.154262 2.530344 -59.908149 6.743833 -0.000000 0.000001 -0.000001 -30.796196 10.964163 22.746188 43.800873 -5.902004 -10.327493 -13.792258 -2.581951 -7.697058 0.000000 0.000000 -0.000000 0.000003 -0.000001 -0.000001 -30.629994 -9.471160 -25.650449 48.303528 4.425845 -7.476155 -22.058352 2.659027 19.314580 -0.000000 -0.000002 -0.000000 -0.000004 0.000001 -0.000002 11.323893 0.134935 -2.474095 8.480430 0.298195 -5.198201 8.505401 0.319123 -5.189306 -21.271548 25.468783 12.274405 0.592077 25.517906 -3.270532 0.000000 0.000000 -0.000000 0.000000 0.000000 -0.000000 0.000000 0.000000 0.000000 0.000000 0.000000 -0.000000 0.000000 0.000000 -0.000000 0.000000 0.000000 -0.000000 0.000000 0.000000 -0.000000 0.000000 0.000000 -0.000000 0.000000 0.000000 -0.000000 -6.289237 -10.972824 -3.981146 -22.468843 12.260200 -38.048716 -0.007623 -45.943653 -0.048478 22.539554 -6.530564 14.155091 -1.276736 -9.144460 8.039536 2.043454 19.020967 -2.416907 -0.000001 0.000001 -0.000001 13.295359 -1.002600 11.959685 -0.158205 0.317060 -29.827337 0.000002 0.000000 -0.000002 8.496305 -0.322630 0.363331 0.218136 0.640022 -28.623456 -0.000000 -0.000000 -0.000003 6.095562 3.145587 -14.930963 0.028903 0.328765 -28.847051 0.000001 0.000000 0.000001 -5.616304 7.706901 -12.599043 0.219360 0.275645 -45.310075 0.000000 0.000001 0.000001 0.000001 0.000004 -0.000002 -5.549651 10.742563 3.976904 -41.120365 -26.961880 30.488349 24.044914 112.716604 -22.319402 -8.225078 8.805246 -10.925590 0.216283 10.303178 -10.784196 1.077772 -16.557584 3.363074 0.000001 0.000001 0.000001 19.431733 11.176183 -14.344932 -0.119587 -0.313117 17.031956 -0.000004 0.000003 -0.000001 4.322358 2.446190 -5.815341 0.348852 -0.447339 25.886579 0.000000 -0.000000 -0.000003 -6.993748 -10.676508 4.716697 0.102301 -0.057124 25.152260 -0.000000 0.000001 0.000005 -19.410161 -20.217688 4.987173 0.204854 -0.064365 35.840905 -0.000001 0.000000 0.000001 0.000003 0.000001 0.000001 0.000001 0.000005 -0.000001 0.000002 0.000003 -0.000001 0.000001 0.000005 -0.000002 0.000001 0.000005 -0.000002 0.000001 0.000005 -0.000001 0.000002 0.000003 -0.000000 0.000001 0.000005 -0.000002 0.000001 0.000005 -0.000002 0.000001 0.000005 -0.000001 0.000002 0.000003 -0.000000 -0.000000 0.000001 -0.000001 -0.000000 0.000001 -0.000001 -0.000000 0.000001 -0.000001 
-0.920988 63.732254 1.014143 2.741946 -59.408063 6.696522 -0.000000 -0.000000 -0.000000 -31.371773 11.002345 23.036932 43.718634 -6.526867 -10.194862 -13.511397 -2.617465 -7.576404 0.000000 0.000002 -0.000000 0.000005 -0.000002 -0.000001 -30.649180 -9.584725 -25.295030 48.388731 3.828543 -7.523656 -22.112451 2.622309 19.431813 0.000000 -0.000000 -0.000000 -0.000001 0.000001 -0.000002 11.292205 0.117390 -2.605045 8.464969 0.209294 -5.314528 8.493397 0.234934 -5.330987 -21.281575 25.377445 12.135283 0.415238 25.533091 -3.339015 0.000000 0.000000 0.000000 0.000000 0.000000 0.000000 0.000000 0.000000 0.000000 0.000000 0.000000 -0.000001 0.000001 0.000000 -0.000001 0.000000 0.000000 -0.000001 0.000001 0.000000 -0.000001 0.000000 0.000000 0.000000 0.000000 0.000000 0.000000 -6.273764 -11.073697 -4.000074 -22.653202 11.467405 -37.577819 0.101487 -45.286521 0.029242 22.591670 -6.279000 14.672746 -1.192352 -8.677237 8.217230 2.161749 19.347576 -2.285310 0.000001 0.000001 0.000002 13.296894 -1.004199 11.457433 -0.157588 0.317409 -30.329605 0.000000 0.000001 0.000005 8.489741 -0.317755 -0.138845 0.220836 0.641751 -29.125750 0.000001 0.000001 0.000001 6.090230 3.151386 -15.432935 0.029124 0.332252 -29.349244 -0.000001 0.000002 -0.000007 -5.618494 7.709737 -13.102000 0.221297 0.277318 -45.812305 0.000000 0.000000 0.000001 -0.000000 0.000000 -0.000000 -5.533450 10.726457 3.599541 -41.202785 -26.856594 30.497385 24.146326 112.624751 -22.428900 -8.270608 9.368447 -10.469690 0.227587 10.201352 -10.820775 1.211188 -16.905087 3.223161 0.000002 -0.000004 -0.000002 19.434489 11.176496 -13.933442 -0.119212 -0.313450 17.442980 -0.000003 0.000001 -0.000005 4.315553 2.442432 -5.404189 0.350970 -0.448841 26.297478 -0.000000 -0.000003 0.000006 -6.997174 -10.679909 5.128693 0.102159 -0.059977 25.563265 0.000001 -0.000001 -0.000002 -19.418397 -20.225382 5.397177 0.206095 -0.066081 36.251854 -0.000001 0.000002 0.000001 0.000002 -0.000002 -0.000001 -0.000001 -0.000003 0.000002 -0.000000 0.000000 -0.000001 -0.000001 -0.000003 0.000002 -0.000001 -0.000003 0.000002 -0.000001 -0.000003 0.000002 -0.000000 0.000000 -0.000000 -0.000001 -0.000003 0.000002 -0.000001 -0.000003 0.000002 -0.000001 -0.000003 0.000002 -0.000000 0.000000 -0.000000 -0.000000 -0.000000 -0.000000 -0.000000 -0.000000 -0.000000 -0.000000 -0.000000 -0.000000 
